<svg id="mermaid-dyy6ez8qc5s" xmlns="http://www.w3.org/2000/svg" xmlns:xlink="http://www.w3.org/1999/xlink" class="classDiagram" style="max-width: 100%; touch-action: none; user-select: none; cursor: grab; min-height: fit-content; max-height: 100%;" viewBox="-0.11469640434188477 0 2085.1668928086838 414" role="graphics-document document" aria-roledescription="class" preserveAspectRatio="xMidYMid meet"><style>#mermaid-dyy6ez8qc5s{font-family:ui-sans-serif,-apple-system,system-ui,Segoe UI,Helvetica;font-size:16px;fill:#ccc;}@keyframes edge-animation-frame{from{stroke-dashoffset:0;}}@keyframes dash{to{stroke-dashoffset:0;}}#mermaid-dyy6ez8qc5s .edge-animation-slow{stroke-dasharray:9,5!important;stroke-dashoffset:900;animation:dash 50s linear infinite;stroke-linecap:round;}#mermaid-dyy6ez8qc5s .edge-animation-fast{stroke-dasharray:9,5!important;stroke-dashoffset:900;animation:dash 20s linear infinite;stroke-linecap:round;}#mermaid-dyy6ez8qc5s .error-icon{fill:#a44141;}#mermaid-dyy6ez8qc5s .error-text{fill:#ddd;stroke:#ddd;}#mermaid-dyy6ez8qc5s .edge-thickness-normal{stroke-width:1px;}#mermaid-dyy6ez8qc5s .edge-thickness-thick{stroke-width:3.5px;}#mermaid-dyy6ez8qc5s .edge-pattern-solid{stroke-dasharray:0;}#mermaid-dyy6ez8qc5s .edge-thickness-invisible{stroke-width:0;fill:none;}#mermaid-dyy6ez8qc5s .edge-pattern-dashed{stroke-dasharray:3;}#mermaid-dyy6ez8qc5s .edge-pattern-dotted{stroke-dasharray:2;}#mermaid-dyy6ez8qc5s .marker{fill:lightgrey;stroke:lightgrey;}#mermaid-dyy6ez8qc5s .marker.cross{stroke:lightgrey;}#mermaid-dyy6ez8qc5s svg{font-family:ui-sans-serif,-apple-system,system-ui,Segoe UI,Helvetica;font-size:16px;}#mermaid-dyy6ez8qc5s p{margin:0;}#mermaid-dyy6ez8qc5s g.classGroup text{fill:#ccc;stroke:none;font-family:ui-sans-serif,-apple-system,system-ui,Segoe UI,Helvetica;font-size:10px;}#mermaid-dyy6ez8qc5s g.classGroup text .title{font-weight:bolder;}#mermaid-dyy6ez8qc5s .nodeLabel,#mermaid-dyy6ez8qc5s .edgeLabel{color:#e0dfdf;}#mermaid-dyy6ez8qc5s .edgeLabel .label rect{fill:#1f2020;}#mermaid-dyy6ez8qc5s .label text{fill:#e0dfdf;}#mermaid-dyy6ez8qc5s .labelBkg{background:#1f2020;}#mermaid-dyy6ez8qc5s .edgeLabel .label span{background:#1f2020;}#mermaid-dyy6ez8qc5s .classTitle{font-weight:bolder;}#mermaid-dyy6ez8qc5s .node rect,#mermaid-dyy6ez8qc5s .node circle,#mermaid-dyy6ez8qc5s .node ellipse,#mermaid-dyy6ez8qc5s .node polygon,#mermaid-dyy6ez8qc5s .node path{fill:#1f2020;stroke:#ccc;stroke-width:1px;}#mermaid-dyy6ez8qc5s .divider{stroke:#ccc;stroke-width:1;}#mermaid-dyy6ez8qc5s g.clickable{cursor:pointer;}#mermaid-dyy6ez8qc5s g.classGroup rect{fill:#1f2020;stroke:#ccc;}#mermaid-dyy6ez8qc5s g.classGroup line{stroke:#ccc;stroke-width:1;}#mermaid-dyy6ez8qc5s .classLabel .box{stroke:none;stroke-width:0;fill:#1f2020;opacity:0.5;}#mermaid-dyy6ez8qc5s .classLabel .label{fill:#ccc;font-size:10px;}#mermaid-dyy6ez8qc5s .relation{stroke:lightgrey;stroke-width:1;fill:none;}#mermaid-dyy6ez8qc5s .dashed-line{stroke-dasharray:3;}#mermaid-dyy6ez8qc5s .dotted-line{stroke-dasharray:1 2;}#mermaid-dyy6ez8qc5s #compositionStart,#mermaid-dyy6ez8qc5s .composition{fill:lightgrey!important;stroke:lightgrey!important;stroke-width:1;}#mermaid-dyy6ez8qc5s #compositionEnd,#mermaid-dyy6ez8qc5s .composition{fill:lightgrey!important;stroke:lightgrey!important;stroke-width:1;}#mermaid-dyy6ez8qc5s #dependencyStart,#mermaid-dyy6ez8qc5s .dependency{fill:lightgrey!important;stroke:lightgrey!important;stroke-width:1;}#mermaid-dyy6ez8qc5s #dependencyStart,#mermaid-dyy6ez8qc5s .dependency{fill:lightgrey!important;stroke:lightgrey!important;stroke-width:1;}#mermaid-dyy6ez8qc5s #extensionStart,#mermaid-dyy6ez8qc5s .extension{fill:transparent!important;stroke:lightgrey!important;stroke-width:1;}#mermaid-dyy6ez8qc5s #extensionEnd,#mermaid-dyy6ez8qc5s .extension{fill:transparent!important;stroke:lightgrey!important;stroke-width:1;}#mermaid-dyy6ez8qc5s #aggregationStart,#mermaid-dyy6ez8qc5s .aggregation{fill:transparent!important;stroke:lightgrey!important;stroke-width:1;}#mermaid-dyy6ez8qc5s #aggregationEnd,#mermaid-dyy6ez8qc5s .aggregation{fill:transparent!important;stroke:lightgrey!important;stroke-width:1;}#mermaid-dyy6ez8qc5s #lollipopStart,#mermaid-dyy6ez8qc5s .lollipop{fill:#1f2020!important;stroke:lightgrey!important;stroke-width:1;}#mermaid-dyy6ez8qc5s #lollipopEnd,#mermaid-dyy6ez8qc5s .lollipop{fill:#1f2020!important;stroke:lightgrey!important;stroke-width:1;}#mermaid-dyy6ez8qc5s .edgeTerminals{font-size:11px;line-height:initial;}#mermaid-dyy6ez8qc5s .classTitleText{text-anchor:middle;font-size:18px;fill:#ccc;}#mermaid-dyy6ez8qc5s .label-icon{display:inline-block;height:1em;overflow:visible;vertical-align:-0.125em;}#mermaid-dyy6ez8qc5s .node .label-icon path{fill:currentColor;stroke:revert;stroke-width:revert;}#mermaid-dyy6ez8qc5s :root{--mermaid-font-family:ui-sans-serif,-apple-system,system-ui,Segoe UI,Helvetica;}</style><g><defs><marker id="mermaid-dyy6ez8qc5s_class-aggregationStart" class="marker aggregation class" refX="18" refY="7" markerWidth="190" markerHeight="240" orient="auto"><path d="M 18,7 L9,13 L1,7 L9,1 Z"></path></marker></defs><defs><marker id="mermaid-dyy6ez8qc5s_class-aggregationEnd" class="marker aggregation class" refX="1" refY="7" markerWidth="20" markerHeight="28" orient="auto"><path d="M 18,7 L9,13 L1,7 L9,1 Z"></path></marker></defs><defs><marker id="mermaid-dyy6ez8qc5s_class-extensionStart" class="marker extension class" refX="18" refY="7" markerWidth="190" markerHeight="240" orient="auto"><path d="M 1,7 L18,13 V 1 Z"></path></marker></defs><defs><marker id="mermaid-dyy6ez8qc5s_class-extensionEnd" class="marker extension class" refX="1" refY="7" markerWidth="20" markerHeight="28" orient="auto"><path d="M 1,1 V 13 L18,7 Z"></path></marker></defs><defs><marker id="mermaid-dyy6ez8qc5s_class-compositionStart" class="marker composition class" refX="18" refY="7" markerWidth="190" markerHeight="240" orient="auto"><path d="M 18,7 L9,13 L1,7 L9,1 Z"></path></marker></defs><defs><marker id="mermaid-dyy6ez8qc5s_class-compositionEnd" class="marker composition class" refX="1" refY="7" markerWidth="20" markerHeight="28" orient="auto"><path d="M 18,7 L9,13 L1,7 L9,1 Z"></path></marker></defs><defs><marker id="mermaid-dyy6ez8qc5s_class-dependencyStart" class="marker dependency class" refX="6" refY="7" markerWidth="190" markerHeight="240" orient="auto"><path d="M 5,7 L9,13 L1,7 L9,1 Z"></path></marker></defs><defs><marker id="mermaid-dyy6ez8qc5s_class-dependencyEnd" class="marker dependency class" refX="13" refY="7" markerWidth="20" markerHeight="28" orient="auto"><path d="M 18,7 L9,13 L14,7 L9,1 Z"></path></marker></defs><defs><marker id="mermaid-dyy6ez8qc5s_class-lollipopStart" class="marker lollipop class" refX="13" refY="7" markerWidth="190" markerHeight="240" orient="auto"><circle stroke="black" fill="transparent" cx="7" cy="7" r="6"></circle></marker></defs><defs><marker id="mermaid-dyy6ez8qc5s_class-lollipopEnd" class="marker lollipop class" refX="1" refY="7" markerWidth="190" markerHeight="240" orient="auto"><circle stroke="black" fill="transparent" cx="7" cy="7" r="6"></circle></marker></defs><g class="root"><g class="clusters"></g><g class="edgePaths"><path d="M898.714,143.809L789.861,158.341C681.007,172.873,463.301,201.936,354.447,220.635C245.594,239.333,245.594,247.667,245.594,251.833L245.594,256" id="id_IMapElementBehaviour_FightElementBehaviour_1" class="edge-thickness-normal edge-pattern-dashed relation" style=";;;" data-edge="true" data-et="edge" data-id="id_IMapElementBehaviour_FightElementBehaviour_1" data-points="W3sieCI6OTE1LjgxMjUsInkiOjE0MS41MjYyNTkxMjU5Mjk0fSx7IngiOjI0NS41OTM3NSwieSI6MjMxfSx7IngiOjI0NS41OTM3NSwieSI6MjU2fV0=" marker-start="url(#mermaid-dyy6ez8qc5s_class-extensionStart)"></path><path d="M899.321,191.414L877.819,198.012C856.316,204.609,813.31,217.805,791.807,228.569C770.305,239.333,770.305,247.667,770.305,251.833L770.305,256" id="id_IMapElementBehaviour_BossElementBehaviour_2" class="edge-thickness-normal edge-pattern-dashed relation" style=";;;" data-edge="true" data-et="edge" data-id="id_IMapElementBehaviour_BossElementBehaviour_2" data-points="W3sieCI6OTE1LjgxMjUsInkiOjE4Ni4zNTM4NjM0MDM1MDY3NX0seyJ4Ijo3NzAuMzA0Njg3NSwieSI6MjMxfSx7IngiOjc3MC4zMDQ2ODc1LCJ5IjoyNTZ9XQ==" marker-start="url(#mermaid-dyy6ez8qc5s_class-extensionStart)"></path><path d="M1174.438,223.25L1174.438,224.542C1174.438,225.833,1174.438,228.417,1174.438,239.375C1174.438,250.333,1174.438,269.667,1174.438,279.333L1174.438,289" id="id_IMapElementBehaviour_BoneFireElementBehaviour_3" class="edge-thickness-normal edge-pattern-dashed relation" style=";;;" data-edge="true" data-et="edge" data-id="id_IMapElementBehaviour_BoneFireElementBehaviour_3" data-points="W3sieCI6MTE3NC40Mzc1LCJ5IjoyMDZ9LHsieCI6MTE3NC40Mzc1LCJ5IjoyMzF9LHsieCI6MTE3NC40Mzc1LCJ5IjoyODl9XQ==" marker-start="url(#mermaid-dyy6ez8qc5s_class-extensionStart)"></path><path d="M1406.265,213.183L1412.748,216.153C1419.232,219.122,1432.198,225.061,1438.681,237.697C1445.164,250.333,1445.164,269.667,1445.164,279.333L1445.164,289" id="id_IMapElementBehaviour_StoreElementBehaviour_4" class="edge-thickness-normal edge-pattern-dashed relation" style=";;;" data-edge="true" data-et="edge" data-id="id_IMapElementBehaviour_StoreElementBehaviour_4" data-points="W3sieCI6MTM5MC41ODIwOTQyNTQwMzIyLCJ5IjoyMDZ9LHsieCI6MTQ0NS4xNjQwNjI1LCJ5IjoyMzF9LHsieCI6MTQ0NS4xNjQwNjI1LCJ5IjoyODl9XQ==" marker-start="url(#mermaid-dyy6ez8qc5s_class-extensionStart)"></path><path d="M1450.019,158.505L1514.667,170.588C1579.315,182.67,1708.61,206.835,1773.258,225.084C1837.906,243.333,1837.906,255.667,1837.906,261.833L1837.906,268" id="id_IMapElementBehaviour_StairsElementBehaviour_5" class="edge-thickness-normal edge-pattern-dashed relation" style=";;;" data-edge="true" data-et="edge" data-id="id_IMapElementBehaviour_StairsElementBehaviour_5" data-points="W3sieCI6MTQzMy4wNjI1LCJ5IjoxNTUuMzM2MTEyMjg4NjM0NTV9LHsieCI6MTgzNy45MDYyNSwieSI6MjMxfSx7IngiOjE4MzcuOTA2MjUsInkiOjI2OH1d" marker-start="url(#mermaid-dyy6ez8qc5s_class-extensionStart)"></path></g><g class="edgeLabels"><g class="edgeLabel"><g class="label" data-id="id_IMapElementBehaviour_FightElementBehaviour_1" transform="translate(0, 0)"><foreignObject width="0" height="0"><div xmlns="http://www.w3.org/1999/xhtml" class="labelBkg" style="display: table-cell; white-space: nowrap; line-height: 1.5; max-width: 200px; text-align: center;"><span class="edgeLabel"></span></div></foreignObject></g></g><g class="edgeLabel"><g class="label" data-id="id_IMapElementBehaviour_BossElementBehaviour_2" transform="translate(0, 0)"><foreignObject width="0" height="0"><div xmlns="http://www.w3.org/1999/xhtml" class="labelBkg" style="display: table-cell; white-space: nowrap; line-height: 1.5; max-width: 200px; text-align: center;"><span class="edgeLabel"></span></div></foreignObject></g></g><g class="edgeLabel"><g class="label" data-id="id_IMapElementBehaviour_BoneFireElementBehaviour_3" transform="translate(0, 0)"><foreignObject width="0" height="0"><div xmlns="http://www.w3.org/1999/xhtml" class="labelBkg" style="display: table-cell; white-space: nowrap; line-height: 1.5; max-width: 200px; text-align: center;"><span class="edgeLabel"></span></div></foreignObject></g></g><g class="edgeLabel"><g class="label" data-id="id_IMapElementBehaviour_StoreElementBehaviour_4" transform="translate(0, 0)"><foreignObject width="0" height="0"><div xmlns="http://www.w3.org/1999/xhtml" class="labelBkg" style="display: table-cell; white-space: nowrap; line-height: 1.5; max-width: 200px; text-align: center;"><span class="edgeLabel"></span></div></foreignObject></g></g><g class="edgeLabel"><g class="label" data-id="id_IMapElementBehaviour_StairsElementBehaviour_5" transform="translate(0, 0)"><foreignObject width="0" height="0"><div xmlns="http://www.w3.org/1999/xhtml" class="labelBkg" style="display: table-cell; white-space: nowrap; line-height: 1.5; max-width: 200px; text-align: center;"><span class="edgeLabel"></span></div></foreignObject></g></g></g><g class="nodes"><g class="node default" id="classId-IMapElementBehaviour-32" transform="translate(1174.4375, 107)"><g class="basic label-container"><path d="M-258.625 -99 L258.625 -99 L258.625 99 L-258.625 99" stroke="none" stroke-width="0" fill="#1f2020" style=""></path><path d="M-258.625 -99 C-59.339694987706224 -99, 139.94561002458755 -99, 258.625 -99 M-258.625 -99 C-145.6403599070791 -99, -32.6557198141582 -99, 258.625 -99 M258.625 -99 C258.625 -48.00806088785135, 258.625 2.9838782242972997, 258.625 99 M258.625 -99 C258.625 -51.47438226564651, 258.625 -3.9487645312930226, 258.625 99 M258.625 99 C54.707874814232156 99, -149.2092503715357 99, -258.625 99 M258.625 99 C101.84836494736373 99, -54.92827010527253 99, -258.625 99 M-258.625 99 C-258.625 54.81398017386461, -258.625 10.627960347729214, -258.625 -99 M-258.625 99 C-258.625 30.88441381931443, -258.625 -37.23117236137114, -258.625 -99" stroke="#ccc" stroke-width="1.3" fill="none" stroke-dasharray="0 0" style=""></path></g><g class="annotation-group text" transform="translate(-42.453125, -75)"><g class="label" style="" transform="translate(0,-12)"><foreignObject width="84.90625" height="24"><div xmlns="http://www.w3.org/1999/xhtml" style="display: table-cell; white-space: nowrap; line-height: 1.5; max-width: 135px; text-align: center;"><span class="nodeLabel markdown-node-label" style=""><p>«interface»</p></span></div></foreignObject></g></g><g class="label-group text" transform="translate(-89.734375, -51)"><g class="label" style="font-weight: bolder" transform="translate(0,-12)"><foreignObject width="179.46875" height="24"><div xmlns="http://www.w3.org/1999/xhtml" style="display: table-cell; white-space: nowrap; line-height: 1.5; max-width: 217px; text-align: center;"><span class="nodeLabel markdown-node-label" style=""><p>IMapElementBehaviour</p></span></div></foreignObject></g></g><g class="members-group text" transform="translate(-246.625, -3)"></g><g class="methods-group text" transform="translate(-246.625, 27)"><g class="label" style="" transform="translate(0,-12)"><foreignObject width="247.859375" height="24"><div xmlns="http://www.w3.org/1999/xhtml" style="display: table-cell; white-space: nowrap; line-height: 1.5; max-width: 302px; text-align: center;"><span class="nodeLabel markdown-node-label" style=""><p>+HandleClick(state, data, context)</p></span></div></foreignObject></g><g class="label" style="" transform="translate(0,12)"><foreignObject width="318.453125" height="24"><div xmlns="http://www.w3.org/1999/xhtml" style="display: table-cell; white-space: nowrap; line-height: 1.5; max-width: 373px; text-align: center;"><span class="nodeLabel markdown-node-label" style=""><p>+HandlePlayerStopped(state, data, context)</p></span></div></foreignObject></g><g class="label" style="" transform="translate(0,36)"><foreignObject width="403.515625" height="24"><div xmlns="http://www.w3.org/1999/xhtml" style="display: table-cell; white-space: nowrap; line-height: 1.5; max-width: 458px; text-align: center;"><span class="nodeLabel markdown-node-label" style=""><p>+HandleAccessibilityChanged(state, prev, curr, context)</p></span></div></foreignObject></g></g><g class="divider" style=""><path d="M-258.625 -27 C-148.9731363406329 -27, -39.32127268126578 -27, 258.625 -27 M-258.625 -27 C-148.27660452001237 -27, -37.92820904002477 -27, 258.625 -27" stroke="#ccc" stroke-width="1.3" fill="none" stroke-dasharray="0 0" style=""></path></g><g class="divider" style=""><path d="M-258.625 -3 C-61.22869636781246 -3, 136.16760726437508 -3, 258.625 -3 M-258.625 -3 C-148.07063877043097 -3, -37.51627754086195 -3, 258.625 -3" stroke="#ccc" stroke-width="1.3" fill="none" stroke-dasharray="0 0" style=""></path></g></g><g class="node default" id="classId-FightElementBehaviour-33" transform="translate(245.59375, 331)"><g class="basic label-container"><path d="M-237.59375 -75 L237.59375 -75 L237.59375 75 L-237.59375 75" stroke="none" stroke-width="0" fill="#1f2020" style=""></path><path d="M-237.59375 -75 C-49.53049781255129 -75, 138.53275437489742 -75, 237.59375 -75 M-237.59375 -75 C-56.09370974648232 -75, 125.40633050703536 -75, 237.59375 -75 M237.59375 -75 C237.59375 -26.656163981542377, 237.59375 21.687672036915245, 237.59375 75 M237.59375 -75 C237.59375 -43.81071594045381, 237.59375 -12.621431880907622, 237.59375 75 M237.59375 75 C120.06249155969608 75, 2.5312331193921693 75, -237.59375 75 M237.59375 75 C64.7283325560862 75, -108.1370848878276 75, -237.59375 75 M-237.59375 75 C-237.59375 42.2556995974759, -237.59375 9.511399194951807, -237.59375 -75 M-237.59375 75 C-237.59375 26.14315157114426, -237.59375 -22.713696857711483, -237.59375 -75" stroke="#ccc" stroke-width="1.3" fill="none" stroke-dasharray="0 0" style=""></path></g><g class="annotation-group text" transform="translate(0, -51)"></g><g class="label-group text" transform="translate(-90.484375, -51)"><g class="label" style="font-weight: bolder" transform="translate(0,-12)"><foreignObject width="180.96875" height="24"><div xmlns="http://www.w3.org/1999/xhtml" style="display: table-cell; white-space: nowrap; line-height: 1.5; max-width: 218px; text-align: center;"><span class="nodeLabel markdown-node-label" style=""><p>FightElementBehaviour</p></span></div></foreignObject></g></g><g class="members-group text" transform="translate(-225.59375, -3)"></g><g class="methods-group text" transform="translate(-225.59375, 27)"><g class="label" style="" transform="translate(0,-12)"><foreignObject width="208.984375" height="24"><div xmlns="http://www.w3.org/1999/xhtml" style="display: table-cell; white-space: nowrap; line-height: 1.5; max-width: 264px; text-align: center;"><span class="nodeLabel markdown-node-label" style=""><p>-LaunchBattle(data, context)</p></span></div></foreignObject></g><g class="label" style="" transform="translate(0,12)"><foreignObject width="360.703125" height="24"><div xmlns="http://www.w3.org/1999/xhtml" style="display: table-cell; white-space: nowrap; line-height: 1.5; max-width: 415px; text-align: center;"><span class="nodeLabel markdown-node-label" style=""><p>-TryShowConfirmationPopup(state, data, context)</p></span></div></foreignObject></g></g><g class="divider" style=""><path d="M-237.59375 -27 C-108.59478416523447 -27, 20.404181669531056 -27, 237.59375 -27 M-237.59375 -27 C-57.25005593091919 -27, 123.09363813816162 -27, 237.59375 -27" stroke="#ccc" stroke-width="1.3" fill="none" stroke-dasharray="0 0" style=""></path></g><g class="divider" style=""><path d="M-237.59375 -3 C-117.25174928618783 -3, 3.090251427624338 -3, 237.59375 -3 M-237.59375 -3 C-86.66206635716253 -3, 64.26961728567494 -3, 237.59375 -3" stroke="#ccc" stroke-width="1.3" fill="none" stroke-dasharray="0 0" style=""></path></g></g><g class="node default" id="classId-BossElementBehaviour-34" transform="translate(770.3046875, 331)"><g class="basic label-container"><path d="M-237.1171875 -75 L237.1171875 -75 L237.1171875 75 L-237.1171875 75" stroke="none" stroke-width="0" fill="#1f2020" style=""></path><path d="M-237.1171875 -75 C-138.1545683786813 -75, -39.19194925736261 -75, 237.1171875 -75 M-237.1171875 -75 C-58.08358727647558 -75, 120.95001294704883 -75, 237.1171875 -75 M237.1171875 -75 C237.1171875 -31.155479039285154, 237.1171875 12.689041921429691, 237.1171875 75 M237.1171875 -75 C237.1171875 -36.77379864346417, 237.1171875 1.4524027130716632, 237.1171875 75 M237.1171875 75 C81.84034693976454 75, -73.43649362047091 75, -237.1171875 75 M237.1171875 75 C126.27622504600319 75, 15.435262592006382 75, -237.1171875 75 M-237.1171875 75 C-237.1171875 20.367565318466646, -237.1171875 -34.26486936306671, -237.1171875 -75 M-237.1171875 75 C-237.1171875 39.392666534413415, -237.1171875 3.78533306882683, -237.1171875 -75" stroke="#ccc" stroke-width="1.3" fill="none" stroke-dasharray="0 0" style=""></path></g><g class="annotation-group text" transform="translate(0, -51)"></g><g class="label-group text" transform="translate(-89.53125, -51)"><g class="label" style="font-weight: bolder" transform="translate(0,-12)"><foreignObject width="179.0625" height="24"><div xmlns="http://www.w3.org/1999/xhtml" style="display: table-cell; white-space: nowrap; line-height: 1.5; max-width: 216px; text-align: center;"><span class="nodeLabel markdown-node-label" style=""><p>BossElementBehaviour</p></span></div></foreignObject></g></g><g class="members-group text" transform="translate(-225.1171875, -3)"></g><g class="methods-group text" transform="translate(-225.1171875, 27)"><g class="label" style="" transform="translate(0,-12)"><foreignObject width="208.984375" height="24"><div xmlns="http://www.w3.org/1999/xhtml" style="display: table-cell; white-space: nowrap; line-height: 1.5; max-width: 264px; text-align: center;"><span class="nodeLabel markdown-node-label" style=""><p>-LaunchBattle(data, context)</p></span></div></foreignObject></g><g class="label" style="" transform="translate(0,12)"><foreignObject width="360.703125" height="24"><div xmlns="http://www.w3.org/1999/xhtml" style="display: table-cell; white-space: nowrap; line-height: 1.5; max-width: 415px; text-align: center;"><span class="nodeLabel markdown-node-label" style=""><p>-TryShowConfirmationPopup(state, data, context)</p></span></div></foreignObject></g></g><g class="divider" style=""><path d="M-237.1171875 -27 C-102.17205233094307 -27, 32.77308283811385 -27, 237.1171875 -27 M-237.1171875 -27 C-140.67918947078903 -27, -44.24119144157805 -27, 237.1171875 -27" stroke="#ccc" stroke-width="1.3" fill="none" stroke-dasharray="0 0" style=""></path></g><g class="divider" style=""><path d="M-237.1171875 -3 C-141.19887844623008 -3, -45.28056939246014 -3, 237.1171875 -3 M-237.1171875 -3 C-53.55118587283272 -3, 130.01481575433456 -3, 237.1171875 -3" stroke="#ccc" stroke-width="1.3" fill="none" stroke-dasharray="0 0" style=""></path></g></g><g class="node default" id="classId-BoneFireElementBehaviour-35" transform="translate(1174.4375, 331)"><g class="basic label-container"><path d="M-117.015625 -42 L117.015625 -42 L117.015625 42 L-117.015625 42" stroke="none" stroke-width="0" fill="#1f2020" style=""></path><path d="M-117.015625 -42 C-43.59373740093477 -42, 29.82815019813046 -42, 117.015625 -42 M-117.015625 -42 C-41.51139562493189 -42, 33.992833750136214 -42, 117.015625 -42 M117.015625 -42 C117.015625 -9.079545135404139, 117.015625 23.840909729191722, 117.015625 42 M117.015625 -42 C117.015625 -13.951142720239488, 117.015625 14.097714559521023, 117.015625 42 M117.015625 42 C39.580294750749815 42, -37.85503549850037 42, -117.015625 42 M117.015625 42 C38.04987829834822 42, -40.91586840330356 42, -117.015625 42 M-117.015625 42 C-117.015625 14.502674094468453, -117.015625 -12.994651811063093, -117.015625 -42 M-117.015625 42 C-117.015625 14.139112453981355, -117.015625 -13.72177509203729, -117.015625 -42" stroke="#ccc" stroke-width="1.3" fill="none" stroke-dasharray="0 0" style=""></path></g><g class="annotation-group text" transform="translate(0, -18)"></g><g class="label-group text" transform="translate(-105.015625, -18)"><g class="label" style="font-weight: bolder" transform="translate(0,-12)"><foreignObject width="210.03125" height="24"><div xmlns="http://www.w3.org/1999/xhtml" style="display: table-cell; white-space: nowrap; line-height: 1.5; max-width: 245px; text-align: center;"><span class="nodeLabel markdown-node-label" style=""><p>BoneFireElementBehaviour</p></span></div></foreignObject></g></g><g class="members-group text" transform="translate(-105.015625, 30)"></g><g class="methods-group text" transform="translate(-105.015625, 60)"></g><g class="divider" style=""><path d="M-117.015625 6 C-64.94850526555457 6, -12.881385531109146 6, 117.015625 6 M-117.015625 6 C-29.57661726975563 6, 57.86239046048874 6, 117.015625 6" stroke="#ccc" stroke-width="1.3" fill="none" stroke-dasharray="0 0" style=""></path></g><g class="divider" style=""><path d="M-117.015625 24 C-30.713043577865648 24, 55.589537844268705 24, 117.015625 24 M-117.015625 24 C-52.28882457637275 24, 12.437975847254506 24, 117.015625 24" stroke="#ccc" stroke-width="1.3" fill="none" stroke-dasharray="0 0" style=""></path></g></g><g class="node default" id="classId-StoreElementBehaviour-36" transform="translate(1445.1640625, 331)"><g class="basic label-container"><path d="M-103.7109375 -42 L103.7109375 -42 L103.7109375 42 L-103.7109375 42" stroke="none" stroke-width="0" fill="#1f2020" style=""></path><path d="M-103.7109375 -42 C-21.791281150777465 -42, 60.12837519844507 -42, 103.7109375 -42 M-103.7109375 -42 C-38.68804293187071 -42, 26.334851636258577 -42, 103.7109375 -42 M103.7109375 -42 C103.7109375 -8.96358474652149, 103.7109375 24.07283050695702, 103.7109375 42 M103.7109375 -42 C103.7109375 -22.17237184973208, 103.7109375 -2.3447436994641606, 103.7109375 42 M103.7109375 42 C34.7931980056547 42, -34.124541488690596 42, -103.7109375 42 M103.7109375 42 C54.142782015001806 42, 4.574626530003613 42, -103.7109375 42 M-103.7109375 42 C-103.7109375 23.20589956854222, -103.7109375 4.4117991370844365, -103.7109375 -42 M-103.7109375 42 C-103.7109375 14.816503791500281, -103.7109375 -12.366992416999437, -103.7109375 -42" stroke="#ccc" stroke-width="1.3" fill="none" stroke-dasharray="0 0" style=""></path></g><g class="annotation-group text" transform="translate(0, -18)"></g><g class="label-group text" transform="translate(-91.7109375, -18)"><g class="label" style="font-weight: bolder" transform="translate(0,-12)"><foreignObject width="183.421875" height="24"><div xmlns="http://www.w3.org/1999/xhtml" style="display: table-cell; white-space: nowrap; line-height: 1.5; max-width: 220px; text-align: center;"><span class="nodeLabel markdown-node-label" style=""><p>StoreElementBehaviour</p></span></div></foreignObject></g></g><g class="members-group text" transform="translate(-91.7109375, 30)"></g><g class="methods-group text" transform="translate(-91.7109375, 60)"></g><g class="divider" style=""><path d="M-103.7109375 6 C-61.9467380770127 6, -20.182538654025393 6, 103.7109375 6 M-103.7109375 6 C-61.97601057411499 6, -20.241083648229974 6, 103.7109375 6" stroke="#ccc" stroke-width="1.3" fill="none" stroke-dasharray="0 0" style=""></path></g><g class="divider" style=""><path d="M-103.7109375 24 C-61.2873420424413 24, -18.863746584882605 24, 103.7109375 24 M-103.7109375 24 C-58.289361668605174 24, -12.867785837210349 24, 103.7109375 24" stroke="#ccc" stroke-width="1.3" fill="none" stroke-dasharray="0 0" style=""></path></g></g><g class="node default" id="classId-StairsElementBehaviour-37" transform="translate(1837.90625, 331)"><g class="basic label-container"><path d="M-239.03125 -63 L239.03125 -63 L239.03125 63 L-239.03125 63" stroke="none" stroke-width="0" fill="#1f2020" style=""></path><path d="M-239.03125 -63 C-113.3853790494523 -63, 12.260491901095406 -63, 239.03125 -63 M-239.03125 -63 C-101.78056962195114 -63, 35.47011075609771 -63, 239.03125 -63 M239.03125 -63 C239.03125 -25.146603532485393, 239.03125 12.706792935029213, 239.03125 63 M239.03125 -63 C239.03125 -18.0421885964194, 239.03125 26.9156228071612, 239.03125 63 M239.03125 63 C54.80922106931757 63, -129.41280786136485 63, -239.03125 63 M239.03125 63 C118.88586743503483 63, -1.2595151299303495 63, -239.03125 63 M-239.03125 63 C-239.03125 37.06331057078951, -239.03125 11.126621141579022, -239.03125 -63 M-239.03125 63 C-239.03125 34.35755857291663, -239.03125 5.715117145833254, -239.03125 -63" stroke="#ccc" stroke-width="1.3" fill="none" stroke-dasharray="0 0" style=""></path></g><g class="annotation-group text" transform="translate(0, -39)"></g><g class="label-group text" transform="translate(-93.359375, -39)"><g class="label" style="font-weight: bolder" transform="translate(0,-12)"><foreignObject width="186.71875" height="24"><div xmlns="http://www.w3.org/1999/xhtml" style="display: table-cell; white-space: nowrap; line-height: 1.5; max-width: 222px; text-align: center;"><span class="nodeLabel markdown-node-label" style=""><p>StairsElementBehaviour</p></span></div></foreignObject></g></g><g class="members-group text" transform="translate(-227.03125, 9)"></g><g class="methods-group text" transform="translate(-227.03125, 39)"><g class="label" style="" transform="translate(0,-12)"><foreignObject width="360.703125" height="24"><div xmlns="http://www.w3.org/1999/xhtml" style="display: table-cell; white-space: nowrap; line-height: 1.5; max-width: 415px; text-align: center;"><span class="nodeLabel markdown-node-label" style=""><p>-TryShowConfirmationPopup(state, data, context)</p></span></div></foreignObject></g></g><g class="divider" style=""><path d="M-239.03125 -15 C-142.04489055492064 -15, -45.05853110984131 -15, 239.03125 -15 M-239.03125 -15 C-67.88861988267641 -15, 103.25401023464718 -15, 239.03125 -15" stroke="#ccc" stroke-width="1.3" fill="none" stroke-dasharray="0 0" style=""></path></g><g class="divider" style=""><path d="M-239.03125 9 C-73.12836793913712 9, 92.77451412172576 9, 239.03125 9 M-239.03125 9 C-138.49385841091788 9, -37.95646682183579 9, 239.03125 9" stroke="#ccc" stroke-width="1.3" fill="none" stroke-dasharray="0 0" style=""></path></g></g></g></g></g></svg>